<svg xmlns="http://www.w3.org/2000/svg" viewBox="0 0 64 64" width="64" height="64">
  <rect width="64" height="64" rx="14" fill="#5865F2"/>
  <path fill="#fff" d="M24.8 20.5c-2.6 0-4.9.5-6.9 1.5l1.4 2.7c1.6-.8 3.4-1.2 5.4-1.2 3.6 0 5.6 1.6 5.6 4.3v.7c-1.6-.8-3.4-1.2-5.4-1.2-4.6 0-7.7 2.3-7.7 6 0 3.6 3 6 7.4 6 2.4 0 4.4-.8 5.8-2.2v1.9h3.7V27.6c0-4.5-3.3-7.1-9.3-7.1Zm-.3 15.9c-2.4 0-4-1.1-4-3s1.7-3 4.2-3c1.8 0 3.5.4 4.9 1.2v1.6c-1 2-2.9 3.2-5.1 3.2Z"/>
  <path fill="#fff" d="M43.6 13.6h3.9v25.9h-3.9v-2.2c-1.4 1.7-3.5 2.6-6 2.6-5.1 0-8.8-3.9-8.8-9.6s3.7-9.6 8.8-9.6c2.5 0 4.6.9 6 2.6v-9.7Zm-5.2 22.6c3.2 0 5.4-2.4 5.4-6s-2.2-6-5.4-6-5.4 2.4-5.4 6 2.2 6 5.4 6Z" opacity=".92"/>
</svg>
